<?xml version="1.0" encoding="iso-8859-1"?>
<!-- Generator: Adobe Illustrator 19.0.0, SVG Export Plug-In . SVG Version: 6.00 Build 0)  -->
<svg version="1.1" id="Capa_1" xmlns="http://www.w3.org/2000/svg" xmlns:xlink="http://www.w3.org/1999/xlink" x="0px" y="0px"
	 viewBox="0 0 512 512" style="enable-background:new 0 0 512 512;" xml:space="preserve">
<g>
	<path style="fill:#E4C05C;" d="M512,225.634c0,85.391-93.288,102.921-175.642,118.367c-71.073,13.364-138.24,26.034-138.24,76.887
		c0,4.793-3.885,8.678-8.678,8.678c-4.793,0-8.678-3.885-8.678-8.678c0-65.258,77.494-79.837,152.385-93.896
		c79.403-14.926,161.497-30.373,161.497-101.359c0-55.886-50.679-93.375-126.178-93.375H256c-4.793,0-8.678-3.885-8.678-8.678
		s3.885-8.678,8.678-8.678h112.466C454.292,114.903,512,159.421,512,225.634z"/>
	<g>
		<path style="fill:#7D6599;" d="M267.339,63.244c-17.328,2.921-35.11-1.073-49.525-11.123c5.352-15.223,20.411-24.822,36.47-23.246
			c4.793,0,8.678-3.885,8.678-8.678s-3.885-8.678-8.678-8.678c-21.235-1.236-41.153,10.34-50.59,29.403
			c-6.973-5.895-11.162-14.437-11.554-23.559c0-4.793-3.885-8.678-8.678-8.678s-8.678,3.885-8.678,8.678
			c0,26.809,23.545,42.004,28.34,44.82c14.427,12.94,33.267,19.856,52.639,19.324c5.013,0.044,10.02-0.372,14.958-1.241
			c4.695-0.938,7.743-5.503,6.81-10.199C276.598,65.369,272.036,62.316,267.339,63.244z"/>
		<path style="fill:#7D6599;" d="M228.047,192.49c-20.551-12.369-42.093-10.847-64.025,4.479c-2.322,1.625-3.706,4.28-3.708,7.114
			c0.291,12.132-4.621,23.808-13.496,32.085c-3.768,2.963-4.42,8.419-1.458,12.186c2.963,3.768,8.419,4.42,12.186,1.458
			c11.818-10.462,18.996-25.19,19.953-40.945c12.224-9.051,28.756-9.648,41.602-1.504c2.658,1.623,5.982,1.698,8.71,0.195
			c2.728-1.503,4.441-4.352,4.49-7.466C232.35,196.978,230.726,194.077,228.047,192.49z"/>
		<path style="fill:#7D6599;" d="M132.219,301.387c-8.728,0.523-17.219-2.954-23.072-9.449
			c-15.517-17.805-10.686-54.343-10.64-54.712c0.002-0.368-0.021-0.737-0.068-1.102c0.054-0.348,0.085-0.698,0.093-1.05
			c-0.025-0.224-0.155-0.399-0.196-0.616c-0.703-3.355-3.279-6.003-6.613-6.799c-0.218-0.047-0.391-0.184-0.614-0.216
			c-0.355-0.003-0.71,0.017-1.063,0.061c-0.357-0.056-0.716-0.09-1.077-0.099c-21.75,2.386-62.881,16.924-62.881,54.898
			c0,4.793,3.885,8.678,8.678,8.678s8.678-3.885,8.678-8.678c0-22.373,23.044-31.831,37.006-35.518
			c-0.381,14.857,1.37,40.172,15.579,56.514c9.116,10.344,22.415,16.019,36.191,15.445c4.793,0,8.678-3.885,8.678-8.678
			S137.011,301.388,132.219,301.387L132.219,301.387z"/>
		<path style="fill:#7D6599;" d="M287.761,114.903l-13.538,17.356C173.386,154.04,168.266,210.1,168.786,224.766
			c-0.472-14.216-11.986-25.578-26.207-25.86c-40.786,0-44.605,61.18-44.605,61.18C97.974,219.299,0,207.236,0,130.176
			S97.974,40.967,97.974,0.18c0,0,12.67,64.998,63.523,64.998c25.34,0,51.113-17.963,55.886-21.435
			c-3.298,2.777-16.488,14.579-16.488,27.162c0,23.344,43.911,36.621,86.693,43.997H287.761z"/>
	</g>
	<circle style="fill:#71C285;" cx="91.179" cy="123.546" r="35.467"/>
	<path style="fill:#7D6599;" d="M252.059,449.091c-29.314,0-42.682-8.535-48.785-16.224c-2.345-3.687-4.076-7.73-5.124-11.971
		l-0.002-0.025c-0.055-0.513-0.158-1.019-0.307-1.512c-0.058-0.578-0.174-1.149-0.346-1.704l-0.031-0.147
		c-0.245-0.448-0.531-0.873-0.853-1.269c-0.263-0.482-0.571-0.937-0.919-1.361l-0.043-0.064l-0.042-0.062
		c-0.394-0.32-0.816-0.605-1.26-0.852c-0.425-0.351-0.884-0.66-1.37-0.921c-0.542-0.187-1.1-0.32-1.668-0.398
		c-0.498-0.171-1.012-0.294-1.534-0.367c-0.052,0-0.097,0.026-0.149,0.027c-0.055-0.001-0.101-0.031-0.156-0.031
		c-1.16-0.001-2.309,0.231-3.378,0.682l-0.015,0.01c-1.025,0.435-1.956,1.063-2.744,1.85l-0.047,0.07
		c-0.507,0.572-0.938,1.208-1.279,1.892c-0.126,0.218-0.31,0.388-0.417,0.617c-0.029,0.065-0.086,0.11-0.114,0.175
		c-0.097,0.361-0.172,0.727-0.223,1.097c-0.059,0.21-0.089,0.429-0.131,0.646c-0.147,0.434-0.256,0.881-0.326,1.334
		c-0.012,0.331-0.045,0.61-0.059,0.936c-0.418,4.066-4.959,27.572-53.856,27.572c-42.123,0-61.072,31.606-61.072,54.051
		c0,4.793,3.885,8.678,8.678,8.678c4.793,0,8.678-3.885,8.678-8.678c0.985-18.681,15.386-33.885,33.986-35.881
		c-5.679,11.08-8.395,23.441-7.885,35.881c0,4.793,3.885,8.678,8.678,8.678c4.793,0,8.678-3.885,8.678-8.678
		c0-34.051,16.932-37.581,17.97-37.763c0.249-0.034,0.443-0.182,0.684-0.236c9.997-1.139,19.692-4.14,28.584-8.847
		c-1.454,3.766-3.002,7.274-4.548,10.71c-5.865,11.16-9.053,23.531-9.314,36.136c0,4.793,3.885,8.678,8.678,8.678
		c4.793,0,8.678-3.885,8.678-8.678c0.273-10.149,2.94-20.09,7.784-29.013c3.432-7.255,6.279-14.774,8.513-22.483
		c8.913,15.723,13.752,33.425,14.076,51.495c0,4.793,3.885,8.678,8.678,8.678s8.678-3.885,8.678-8.678
		c-0.047-14.244-2.732-28.355-7.918-41.621c5.402,1.701,10.945,2.916,16.562,3.632c0.21,0.051,0.377,0.186,0.593,0.222
		c0.733,0.123,17.992,3.386,17.992,37.767c0,4.793,3.885,8.678,8.678,8.678s8.678-3.885,8.678-8.678
		c0.511-12.44-2.205-24.801-7.884-35.881c18.602,1.994,33.005,17.199,33.989,35.881c0,4.793,3.885,8.678,8.678,8.678
		c4.793,0,8.678-3.885,8.678-8.678C313.131,480.697,294.182,449.091,252.059,449.091z"/>
	<g>
		<circle style="fill:#B49ACA;" cx="190.915" cy="121.498" r="8.678"/>
		<circle style="fill:#B49ACA;" cx="156.203" cy="95.464" r="8.678"/>
		<circle style="fill:#B49ACA;" cx="86.78" cy="190.922" r="8.678"/>
		<circle style="fill:#B49ACA;" cx="147.525" cy="164.888" r="8.678"/>
	</g>
</g>
<g>
</g>
<g>
</g>
<g>
</g>
<g>
</g>
<g>
</g>
<g>
</g>
<g>
</g>
<g>
</g>
<g>
</g>
<g>
</g>
<g>
</g>
<g>
</g>
<g>
</g>
<g>
</g>
<g>
</g>
</svg>
