<?xml version="1.0" encoding="iso-8859-1"?>
<!-- Generator: Adobe Illustrator 19.1.0, SVG Export Plug-In . SVG Version: 6.00 Build 0)  -->
<svg version="1.1" id="Capa_1" xmlns="http://www.w3.org/2000/svg" xmlns:xlink="http://www.w3.org/1999/xlink" x="0px" y="0px"
	 viewBox="0 0 539.303 539.303" style="enable-background:new 0 0 539.303 539.303;" xml:space="preserve">
<g>
	<g>
		<path d="M27.649,120.997c0-3.823-3.091-6.914-6.914-6.914s-6.914,3.09-6.914,6.914v159.025H0v13.828h20.714
			c0.007,0,0.014,0.001,0.021,0.001s0.014-0.001,0.021-0.001h6.901v-13.828h-0.008C27.649,280.022,27.649,120.997,27.649,120.997z"
			 fill="#247ba0" />
		<path d="M103.705,210.882c-3.823,0-6.914,3.09-6.914,6.914v62.227H82.963V162.482c0-3.823-3.09-6.914-6.914-6.914
			c-3.823,0-6.914,3.09-6.914,6.914v117.541H55.306V107.169c0-3.823-3.091-6.914-6.914-6.914s-6.914,3.09-6.914,6.914v179.768
			c0,3.823,3.09,6.914,6.914,6.914c1.84,0,3.505-0.72,4.743-1.889v1.889h50.943c0,0,0-0.013,0-0.019
			c3.649-0.194,6.541-3.198,6.541-6.895v-69.141C110.619,213.973,107.528,210.882,103.705,210.882z" fill="#247ba0" />
		<path d="M186.675,280.023c-2.712,0-5.049,1.558-6.182,3.827v-3.827h-21.454c-0.007,0-0.014-0.001-0.021-0.001
			s-0.014,0.001-0.021,0.001h-20.721v-34.571c0-3.823-3.09-6.914-6.914-6.914c-3.823,0-6.914,3.09-6.914,6.914v41.485
			c0,3.195,2.161,5.871,5.102,6.667v0.247h22.554v82.969c0,3.823,3.09,6.914,6.914,6.914s6.914-3.09,6.914-6.914v-82.969h13.829
			v124.454c0,3.823,3.09,6.914,6.914,6.914c3.823,0,6.914-3.09,6.914-6.913V286.938
			C193.589,283.115,190.498,280.023,186.675,280.023z" fill="#247ba0" />
		<path d="M269.644,280.023c-3.823,0-6.914,3.09-6.914,6.914v172.853c0,3.823,3.09,6.914,6.914,6.914
			c3.824,0,6.914-3.091,6.914-6.914V286.938C276.558,283.115,273.467,280.023,269.644,280.023z" fill="#247ba0" />
		<path d="M407.927,197.053c-3.823,0-6.914,3.09-6.914,6.914v76.056h-42.197v3.869c-1.125-2.291-3.474-3.869-6.202-3.869
			c-3.823,0-6.914,3.09-6.914,6.914v103.712c0,3.823,3.09,6.914,6.914,6.914c3.823,0,6.914-3.091,6.914-6.914v-96.798h13.828v69.141
			c0,3.823,3.09,6.914,6.914,6.914s6.915-3.09,6.914-6.914v-69.141h22.575v-0.253c2.93-0.802,5.082-3.474,5.082-6.661v-82.97
			C414.841,200.145,411.75,197.053,407.927,197.053z" fill="#247ba0" />
		<path d="M490.897,141.74c-3.823,0-6.914,3.09-6.914,6.914v131.369h-13.829v-89.884c0-3.823-3.09-6.914-6.914-6.914
			c-3.823,0-6.914,3.09-6.914,6.914v89.884h-13.828v-62.227c0-3.823-3.09-6.914-6.914-6.914c-3.823,0-6.914,3.09-6.914,6.914v69.141
			c0,3.701,2.899,6.708,6.554,6.896v0.018h50.95v-1.871c1.236,1.157,2.893,1.871,4.723,1.871c3.823,0,6.914-3.091,6.914-6.914
			V148.654C497.811,144.831,494.72,141.74,490.897,141.74z" fill="#247ba0" />
		<path d="M282.394,280.023v13.828h7.993v138.283c0,3.823,3.09,6.914,6.914,6.914c3.823,0,6.914-3.091,6.914-6.914V293.852h13.828
			v165.939c0,3.823,3.09,6.914,6.914,6.914s6.915-3.091,6.914-6.914V293.852h1.466v-13.828H282.394z" fill="#247ba0" />
		<path d="M205.972,280.023v13.828h1.445v179.767c0,3.823,3.09,6.914,6.914,6.914s6.914-3.09,6.914-6.913V293.852h13.829v152.111
			c0,3.823,3.09,6.914,6.914,6.914c3.823,0,6.914-3.091,6.914-6.914V293.852h8.013v-13.828H205.972z" fill="#247ba0" />
		<path d="M539.303,280.022h-13.836V65.684c0-3.823-3.091-6.914-6.914-6.914s-6.914,3.09-6.914,6.914v221.253
			c0,0.047,0.006,0.093,0.007,0.139v6.774h6.886c0.007,0,0.014,0.001,0.021,0.001s0.014-0.001,0.021-0.001h20.729V280.022
			L539.303,280.022z" fill="#247ba0" />
	</g>
</g>
<g>
</g>
<g>
</g>
<g>
</g>
<g>
</g>
<g>
</g>
<g>
</g>
<g>
</g>
<g>
</g>
<g>
</g>
<g>
</g>
<g>
</g>
<g>
</g>
<g>
</g>
<g>
</g>
<g>
</g>
</svg>
