<svg height="512" viewBox="0 0 64 64" width="512" xmlns="http://www.w3.org/2000/svg"><rect fill="#44add8" height="54" rx="3" width="50" x="7" y="7"/><path d="m57 10a3 3 0 0 0 -3-3h-44a3 3 0 0 0 -3 3v5h50z" fill="#3890ce"/><path d="m10 10h2v2h-2z" fill="#eb4042"/><path d="m14 10h2v2h-2z" fill="#fde700"/><path d="m18 10h2v2h-2z" fill="#88bf40"/><path d="m44 35h4v3l4-3h9v-14h-17z" fill="#ef5249"/><path d="m50 25v6l6-3z" fill="#e9f0f1"/><path d="m39 46v-9.809a6 6 0 1 1 0-10.382v-5.809h-21a6 6 0 0 0 -6 6v20h5.537a6 6 0 1 0 8.926 0z" fill="#ffc119"/><path d="m18 2h25v2h-25z" fill="#ccdce5"/><path d="m45 2h2v2h-2z" fill="#ccdce5"/><path d="m21 39h-4v3l-4-3h-10v-12h18z" fill="#88bf40"/><g fill="#d2e288"><path d="m16 30h2v2h-2z"/><path d="m6 30h8v2h-8z"/><path d="m6 34h12v2h-12z"/></g><path d="m36 53h25v8h-25z" fill="#798b9b"/><path d="m39 56h2v2h-2z" fill="#ffc119"/><path d="m43 56h2v2h-2z" fill="#ffc119"/><path d="m36 45h25v8h-25z" fill="#57646f"/><path d="m39 48h2v2h-2z" fill="#ffc119"/><path d="m43 48h2v2h-2z" fill="#ffc119"/></svg>